<svg xmlns="http://www.w3.org/2000/svg" width="12.371" height="10.824" viewBox="0 0 12.371 10.824"><defs><style>.a{fill:#b5d2ff;}</style></defs><path class="a" d="M.442,61.988H11.929a.442.442,0,0,0,.442-.442v-1.1A.442.442,0,0,0,11.929,60H.442A.442.442,0,0,0,0,60.442v1.1A.442.442,0,0,0,.442,61.988Zm2.129,4.418H9.8a.442.442,0,0,0,.442-.442v-1.1a.442.442,0,0,0-.442-.442H2.571a.442.442,0,0,0-.442.442v1.1A.442.442,0,0,0,2.571,66.406ZM4.7,70.824H7.67a.442.442,0,0,0,.442-.442v-1.1a.442.442,0,0,0-.442-.442H4.7a.442.442,0,0,0-.442.442v1.1A.442.442,0,0,0,4.7,70.824Z" transform="translate(0 -60)"/></svg>