<svg xmlns="http://www.w3.org/2000/svg" xmlns:xlink="http://www.w3.org/1999/xlink" width="24" height="24" viewBox="0 0 24 24">
  <defs>
    <clipPath id="clip-path">
      <rect width="24" height="24" fill="none"/>
    </clipPath>
  </defs>
  <g id="Icon_Visibility_Filled" data-name="Icon / Visibility / Filled" opacity="0.5" clip-path="url(#clip-path)">
    <path id="Path_988" data-name="Path 988" d="M24-39a11.827,11.827,0,0,0-11,7.5A11.827,11.827,0,0,0,24-24a11.827,11.827,0,0,0,11-7.5A11.827,11.827,0,0,0,24-39Zm0,12.5a5,5,0,0,1-5-5,5,5,0,0,1,5-5,5,5,0,0,1,5,5A5,5,0,0,1,24-26.5Zm0-8a3,3,0,0,0-3,3,3,3,0,0,0,3,3,3,3,0,0,0,3-3A3,3,0,0,0,24-34.5Z" transform="translate(-12 44)" fill="#fff"/>
    <rect id="Box" width="24" height="24" fill="none"/>
  </g>
</svg>
